HIERARCHY
ROOT Hips
{
    OFFSET 0.000000 0.000000 0.000000
    CHANNELS 6 Xposition Yposition Zposition Zrotation Xrotation Yrotation
    JOINT Spine
    {
        OFFSET -0.000000 14.517291 0.000000
        CHANNELS 3 Zrotation Xrotation Yrotation
        JOINT Spine1
        {
            OFFSET -0.000000 37.558300 0.000000
            CHANNELS 3 Zrotation Xrotation Yrotation
            JOINT Neck
            {
                OFFSET -0.000000 37.404057 3.400369
                CHANNELS 3 Zrotation Xrotation Yrotation
                JOINT Head
                {
                    OFFSET -0.000000 24.785618 -3.540803
                    CHANNELS 3 Zrotation Xrotation Yrotation
                    End Site
                    {
                        OFFSET -0.000000 35.408028 0.000000
                    }
                }
            }
            JOINT LeftShoulder
            {
                OFFSET 6.992933 33.973492 -0.192664
                CHANNELS 3 Zrotation Xrotation Yrotation
                JOINT LeftArm
                {
                    OFFSET 21.527611 0.000000 0.000000
                    CHANNELS 3 Zrotation Xrotation Yrotation
                    JOINT LeftForeArm
                    {
                        OFFSET 56.353916 0.000000 0.000000
                        CHANNELS 3 Zrotation Xrotation Yrotation
                        JOINT LeftHand
                        {
                            OFFSET 47.774071 0.000000 0.000000
                            CHANNELS 3 Zrotation Xrotation Yrotation
                            End Site
                            {
                                OFFSET 26.556021 0.000000 0.000000
                            }
                        }
                    }
                }
            }
            JOINT RightShoulder
            {
                OFFSET -7.065357 33.973492 -0.192664
                CHANNELS 3 Zrotation Xrotation Yrotation
                JOINT RightArm
                {
                    OFFSET -21.527611 0.000000 0.000000
                    CHANNELS 3 Zrotation Xrotation Yrotation
                    JOINT RightForeArm
                    {
                        OFFSET -56.353916 0.000000 0.000000
                        CHANNELS 3 Zrotation Xrotation Yrotation
                        JOINT RightHand
                        {
                            OFFSET -47.774071 0.000000 0.000000
                            CHANNELS 3 Zrotation Xrotation Yrotation
                            End Site
                            {
                                OFFSET -26.556021 0.000000 0.000000
                            }
                        }
                    }
                }
            }
        }
    }
    JOINT LeftUpLeg
    {
        OFFSET 17.704014 0.000000 0.000000
        CHANNELS 3 Zrotation Xrotation Yrotation
        JOINT LeftLeg
        {
            OFFSET -0.000000 -81.181816 0.000000
            CHANNELS 3 Zrotation Xrotation Yrotation
            JOINT LeftFoot
            {
                OFFSET -0.000000 -62.821102 0.000000
                CHANNELS 3 Zrotation Xrotation Yrotation
                JOINT LeftToeBase
                {
                    OFFSET -0.000000 -11.507608 26.556021
                    CHANNELS 3 Zrotation Xrotation Yrotation
                    End Site
                    {
                        OFFSET -0.000000 0.000000 7.081605
                    }
                }
            }
        }
    }
    JOINT RightUpLeg
    {
        OFFSET -17.704014 0.000000 0.000000
        CHANNELS 3 Zrotation Xrotation Yrotation
        JOINT RightLeg
        {
            OFFSET -0.000000 -81.181816 0.000000
            CHANNELS 3 Zrotation Xrotation Yrotation
            JOINT RightFoot
            {
                OFFSET -0.000000 -62.821102 0.000000
                CHANNELS 3 Zrotation Xrotation Yrotation
                JOINT RightToeBase
                {
                    OFFSET -0.000000 -11.507608 26.556021
                    CHANNELS 3 Zrotation Xrotation Yrotation
                    End Site
                    {
                        OFFSET -0.000000 0.000000 7.081605
                    }
                }
            }
        }
    }
}
MOTION
Frames:    12
Frame Time:    0.008333
30.495913    165.433853    4.555657    0.730618    1.544226    -45.977291    0.152895    -2.108979    -1.200423    4.061646    0.453584    -0.417802    18.333780    -0.390142    15.971701    -12.884361    6.978022    12.793311    13.718774    -2.113074    -20.204912    -7.887040    -20.066263    -43.728355    11.877537    -38.580276    -12.667226    -27.984001    -26.626566    -48.488541    -7.040343    2.833091    -1.030638    34.691242    6.060422    79.639977    9.854439    1.538424    106.896843    4.309889    -11.030709    19.725210    5.440428    -6.845108    -0.287858    -9.468611    10.418901    -5.672423    1.875859    -4.389905    38.494774    0.000000    0.000000    0.000000    -2.552857    -3.459237    0.821181    6.280786    11.482703    -0.577461    -1.903361    -7.203880    -18.340816    0.000000    0.000000    0.000000    
30.633303    165.458817    4.638566    0.749848    1.655760    -46.003189    0.176389    -2.101522    -1.182054    4.071609    0.400433    -0.409880    18.372595    -0.360650    15.978304    -12.950492    6.925635    12.787763    13.708860    -2.127470    -20.176672    -7.921074    -20.076170    -43.773956    11.865826    -38.582993    -12.686687    -27.943750    -26.651424    -48.470211    -7.030838    2.767013    -0.999524    34.740578    6.051914    79.636711    9.894333    1.648077    106.862381    4.303865    -10.968834    19.746593    5.448065    -6.995964    -0.340020    -9.486294    10.503047    -5.651607    1.959718    -4.371917    38.554050    0.000000    0.000000    0.000000    -2.530167    -3.557198    0.843837    6.257401    11.430585    -0.597822    -1.795365    -7.086020    -18.362642    0.000000    0.000000    0.000000    
30.777830    165.481949    4.712258    0.774422    1.783529    -46.033546    0.219425    -2.114341    -1.146796    4.053601    0.375655    -0.397559    18.469048    -0.402708    15.995485    -13.058302    6.952958    12.778143    13.725884    -2.129745    -20.195280    -7.897833    -20.100096    -43.776112    11.877848    -38.664841    -12.676123    -28.020727    -26.708576    -48.481098    -7.008920    2.718999    -0.986759    34.740059    6.039939    79.643372    9.871122    1.653940    106.879303    4.332593    -10.932049    19.716068    5.471919    -7.179285    -0.404435    -9.523891    10.608653    -5.646233    2.066440    -4.338921    38.643185    0.000000    0.000000    0.000000    -2.482839    -3.696399    0.857731    6.199261    11.428432    -0.563168    -1.642205    -6.992702    -18.444349    0.000000    0.000000    0.000000    
30.927853    165.503250    4.776024    0.799806    1.918058    -46.062542    0.234278    -2.106847    -1.117043    4.069166    0.318342    -0.385716    18.567917    -0.402222    15.994681    -13.166328    6.925399    12.750004    13.779131    -2.125206    -20.200905    -7.959628    -20.184969    -43.823433    11.867704    -38.657570    -12.668193    -27.978401    -26.735033    -48.426708    -6.958949    2.679103    -0.979162    34.702518    6.032230    79.656364    9.854579    1.623085    106.909889    4.357117    -10.942705    19.721567    5.496558    -7.372551    -0.455383    -9.541593    10.717184    -5.701908    2.169377    -4.311654    38.772392    0.000000    0.000000    0.000000    -2.419620    -3.866631    0.861112    6.115065    11.467478    -0.511214    -1.466202    -6.900048    -18.544556    0.000000    0.000000    0.000000    
31.091892    165.529007    4.833750    0.826346    2.059967    -46.110767    0.229616    -2.075700    -1.080577    4.160069    0.234517    -0.370649    18.598356    -0.407934    16.009066    -13.227975    6.886844    12.749897    13.756580    -2.147189    -20.198788    -7.964808    -20.195374    -43.831173    11.866080    -38.676327    -12.670528    -27.978657    -26.759548    -48.414791    -6.998567    2.674859    -0.966369    34.744259    5.991429    79.714554    9.869256    1.657478    106.886650    4.382486    -10.916456    19.784834    5.537261    -7.572142    -0.519236    -9.591978    10.817089    -5.740911    2.286747    -4.264603    38.923725    0.000000    0.000000    0.000000    -2.357694    -4.067576    0.860233    6.039577    11.546348    -0.432723    -1.257195    -6.829772    -18.684202    0.000000    0.000000    0.000000    
31.257975    165.558823    4.887180    0.842213    2.203486    -46.162685    0.261764    -2.055604    -1.048018    4.174139    0.202175    -0.358941    18.664953    -0.437417    16.018808    -13.267912    6.836773    12.735572    13.794888    -2.197193    -20.200512    -7.963085    -20.213581    -43.826290    11.875834    -38.701874    -12.648083    -27.955397    -26.792452    -48.442554    -6.976494    2.601127    -0.925117    34.739738    5.976312    79.724281    9.843814    1.625950    106.911705    4.399369    -10.916097    19.789148    5.583028    -7.760088    -0.575370    -9.632326    10.893170    -5.677681    2.386132    -4.198181    38.982857    0.000000    0.000000    0.000000    -2.291178    -4.277870    0.878459    5.975290    11.653068    -0.360658    -1.024034    -6.759206    -18.838953    0.000000    0.000000    0.000000    
31.426367    165.588852    4.931978    0.849469    2.358403    -46.232609    0.300202    -2.018177    -1.001079    4.201382    0.144897    -0.341391    18.763250    -0.420003    16.046696    -13.334586    6.735777    12.734982    13.854931    -2.186636    -20.192287    -7.991050    -20.319225    -43.864094    11.890204    -38.669159    -12.610435    -27.877819    -26.802277    -48.399586    -6.947862    2.562344    -0.889347    34.731644    5.952626    79.772865    9.814120    1.585317    106.919350    4.377046    -10.921245    19.784426    5.654010    -7.937581    -0.581703    -9.676847    10.957099    -5.644495    2.487236    -4.138327    39.045311    0.000000    0.000000    0.000000    -2.213707    -4.523176    0.890967    5.919802    11.813613    -0.295869    -0.802534    -6.666415    -18.957933    0.000000    0.000000    0.000000    
31.612217    165.629135    4.973433    0.856143    2.516470    -46.323139    0.331301    -1.948255    -0.945725    4.262932    0.062805    -0.319925    18.832054    -0.447816    16.067810    -13.389688    6.681132    12.730582    13.882133    -2.232083    -20.180239    -7.979842    -20.307981    -43.854256    11.933990    -38.715836    -12.590061    -27.851833    -26.863178    -48.404007    -6.944690    2.541473    -0.849690    34.733391    5.900023    79.825798    9.788331    1.554258    106.927589    4.368659    -10.921398    19.760382    5.724909    -8.099450    -0.556819    -9.711207    10.978695    -5.542626    2.551443    -4.060191    39.031796    0.000000    0.000000    0.000000    -2.147143    -4.793057    0.868137    5.877271    12.021813    -0.243740    -0.476514    -6.648531    -19.070501    0.000000    0.000000    0.000000    
31.804245    165.667953    5.010371    0.868632    2.675866    -46.421551    0.376620    -1.897895    -0.885012    4.287874    0.012429    -0.298076    18.858400    -0.493841    16.065508    -13.344026    6.616623    12.712339    13.939547    -2.276561    -20.183052    -7.961318    -20.328960    -43.827583    11.970374    -38.758038    -12.577034    -27.790228    -26.953955    -48.335564    -6.901535    2.468326    -0.813370    34.706970    5.916542    79.863029    9.743338    1.449850    106.950447    4.411851    -10.960968    19.772036    5.799833    -8.243882    -0.508594    -9.745112    10.958259    -5.466882    2.614610    -3.975329    39.016285    0.000000    0.000000    0.000000    -2.106653    -5.091133    0.831911    5.869494    12.282343    -0.208152    -0.086671    -6.687947    -19.148186    0.000000    0.000000    0.000000    
31.988859    165.707642    5.044028    0.872441    2.820364    -46.538364    0.380723    -1.822475    -0.796938    4.383971    -0.052182    -0.266159    18.882887    -0.511571    16.072035    -13.342675    6.521544    12.701216    13.946606    -2.326088    -20.220791    -7.929538    -20.330212    -43.783665    12.032976    -38.809784    -12.552916    -27.823967    -26.987467    -48.362411    -6.891736    2.411412    -0.797538    34.698143    5.912458    79.912460    9.713665    1.398905    106.930595    4.404524    -10.966081    19.809723    5.875945    -8.351171    -0.410408    -9.776162    10.915035    -5.366867    2.680252    -3.877379    38.934204    0.000000    0.000000    0.000000    -2.079314    -5.396668    0.824395    5.884974    12.602108    -0.255159    0.322363    -6.762920    -19.162218    0.000000    0.000000    0.000000    
32.198124    165.759232    5.064882    0.893352    2.973579    -46.683270    0.404986    -1.730840    -0.714020    4.431639    -0.140109    -0.235286    18.999983    -0.543121    16.108200    -13.434929    6.466457    12.700921    14.000854    -2.372929    -20.198017    -7.937459    -20.369495    -43.766735    12.046336    -38.825176    -12.563474    -27.793001    -27.019115    -48.351215    -6.845026    2.372099    -0.750881    34.645542    5.916359    79.963425    9.663236    1.274272    106.947922    4.471222    -11.012730    19.819752    5.941577    -8.474847    -0.232926    -9.774559    10.868976    -5.336050    2.686519    -3.782382    38.877140    0.000000    0.000000    0.000000    -2.077699    -5.758763    0.776772    5.919977    12.970393    -0.314634    0.832930    -6.849589    -19.133043    0.000000    0.000000    0.000000    
32.414688    165.812271    5.075276    0.921211    3.138542    -46.838253    0.455558    -1.655382    -0.616986    4.462942    -0.231393    -0.199489    19.004580    -0.548483    16.118454    -13.386134    6.377347    12.703603    14.047750    -2.398207    -20.201880    -7.931158    -20.413725    -43.733158    12.085103    -38.861954    -12.562788    -27.751860    -27.081640    -48.326595    -6.819410    2.343948    -0.715442    34.643993    5.920505    80.034195    9.656775    1.208117    106.925781    4.487022    -11.058991    19.865095    6.019028    -8.611453    -0.043740    -9.782777    10.822176    -5.330732    2.695986    -3.695125    38.851791    0.000000    0.000000    0.000000    -2.079314    -6.143842    0.637477    5.943747    13.381001    -0.343488    1.382177    -7.005628    -19.066681    0.000000    0.000000    0.000000    
